<svg xmlns="http://www.w3.org/2000/svg" xmlns:xlink="http://www.w3.org/1999/xlink" width="24" height="24" viewBox="0 0 24 24" fill="none">
<path d="M20.664 7.57527L13.664 2.90743C12.656 2.23528 11.344 2.23528 10.336 2.90743L3.336 7.57527C2.502 8.12985 2 9.06655 2 10.0699L2 18.9999C2 20.6578 3.344 22.0001 5 22.0001L9 22.0001C9.552 22.0001 10 21.5533 10 21.0007L10 15.9997C10 15.4471 10.448 15.0003 11 15.0003L13 15.0003C13.552 15.0003 14 15.4471 14 15.9997L14 21.0007C14 21.5533 14.448 22.0001 15 22.0001L19 22.0001C20.656 22.0001 22 20.6578 22 18.9999L22 10.0699C22 9.06655 21.498 8.12985 20.664 7.57527Z"   fill="#1A7BEB" >
</path>
</svg>
