<svg xmlns="http://www.w3.org/2000/svg" xmlns:xlink="http://www.w3.org/1999/xlink" width="24" height="24" viewBox="0 0 24 24" fill="none">
<path d="M22 12C22 6.478 17.522 2 12 2C6.478 2 2 6.478 2 12C2 17.522 6.478 22 12 22C17.522 22 22 17.522 22 12ZM16 9C16 6.79 14.21 5 12 5C9.79 5 8 6.79 8 9C8 11.21 9.79 13 12 13C14.21 13 16 11.21 16 9ZM18.43 18.5C18.252 18.81 17.92 19 17.564 19L6.436 19C6.08 19 5.748 18.81 5.57 18.5C5.392 18.19 5.392 17.808 5.57 17.5C6.906 15.192 8.954 13.5 12 13.5C15.046 13.5 17.094 15.192 18.43 17.5C18.608 17.808 18.608 18.19 18.43 18.5Z" fill-rule="evenodd"  fill="#333333" >
</path>
</svg>
