<svg xmlns="http://www.w3.org/2000/svg" xmlns:xlink="http://www.w3.org/1999/xlink" width="24" height="24" viewBox="0 0 24 24" fill="none">
<path d="M23.5 15.4995C23.5 17.157 22.1568 18.5 20.5008 18.5L3.4992 18.5C1.8432 18.5 0.5 17.157 0.5 15.4995L0.5 4.5005C0.5 2.843 1.8432 1.5 3.4992 1.5L20.5008 1.5C22.1568 1.5 23.5 2.843 23.5 4.5005L23.5 15.4995ZM3.4992 3.4992L20.5008 3.4992C21.0528 3.4992 21.499 3.948 21.499 4.5005L21.499 15.4995C21.499 16.052 21.0528 16.5008 20.5008 16.5008L3.4992 16.5008C2.9472 16.5008 2.501 16.052 2.501 15.4995L2.501 4.5005C2.501 3.948 2.9472 3.4992 3.4992 3.4992Z" fill-rule="evenodd"  fill="#333333" >
</path>
<path d="M20.5008 1.5L3.4992 1.5C1.8432 1.5 0.5 2.84325 0.5 4.4997L0.5 13.9997C0.5 14.5518 0.9485 15 1.5005 15L22.4995 15C23.0515 15 23.5 14.5518 23.5 13.9997L23.5 4.4997C23.5 2.84325 22.1568 1.5 20.5008 1.5Z"   fill="#333333" >
</path>
<path d="M6 22.5L18 22.5L18 20.5L6 20.5L6 22.5Z"   fill="#333333" >
</path>
<path d="M1.5 15L22.5 15L22.5 13L1.5 13L1.5 15Z"   fill="#333333" >
</path>
<path d="M16 21.4998C16 22.0524 15.552 22.5 15 22.5L9 22.5C8.448 22.5 8 22.0524 8 21.4998L8 17.5002C8 16.9476 8.448 16.5 9 16.5L15 16.5C15.552 16.5 16 16.9476 16 17.5002L16 21.4998ZM10 18.4998L14 18.4998L14 20.5002L10 20.5002L10 18.4998Z" fill-rule="evenodd"  fill="#333333" >
</path>
</svg>
