<svg xmlns="http://www.w3.org/2000/svg" xmlns:xlink="http://www.w3.org/1999/xlink" width="16" height="16" viewBox="0 0 16 16" fill="none">
<path d="M4.39991 15L11.5999 15C11.9148 15 12.1769 14.7406 12.1989 14.4078L12.799 5.1804C12.8095 5.004 12.7519 4.83075 12.6386 4.70265C12.5253 4.5735 12.366 4.5 12.1999 4.5L3.79991 4.5C3.63383 4.5 3.47447 4.5735 3.36119 4.70265C3.24791 4.83075 3.19031 5.004 3.20087 5.1804L3.80087 14.4078C3.82295 14.7406 4.08503 15 4.39991 15ZM4.44311 5.7726L11.5567 5.7726L11.0402 13.7274L4.95959 13.7274L4.44311 5.7726Z" fill-rule="evenodd"  fill="#999999" >
</path>
<path d="M7.3999 6.72729L7.3999 12.4546L8.5999 12.4546L8.5999 6.72729L7.3999 6.72729Z"   fill="#999999" >
</path>
<path d="M5.30103 6.76263L5.60096 12.4898L6.79918 12.419L6.49925 6.69189L5.30103 6.76263Z"   fill="#999999" >
</path>
<path d="M9.20082 12.419L10.399 12.4897L10.699 6.76261L9.50075 6.69187L9.20082 12.419Z"   fill="#999999" >
</path>
<path d="M12.8 5.13627C12.8 5.48787 12.5312 5.77264 12.2 5.77264L3.79995 5.77264C3.46875 5.77264 3.19995 5.48787 3.19995 5.13627L3.19995 4.49991C3.19995 3.44546 4.00539 2.59082 4.99995 2.59082L11 2.59082C11.9945 2.59082 12.8 3.44546 12.8 4.49991L12.8 5.13627ZM4.99995 3.86355L11 3.86355C11.3312 3.86355 11.6 4.14832 11.6 4.49991L4.39995 4.49991C4.39995 4.14832 4.66875 3.86355 4.99995 3.86355Z" fill-rule="evenodd"  fill="#999999" >
</path>
<path d="M9.79995 3.22727L9.79995 2.909C9.79995 1.85483 8.99391 1 7.99995 1C7.00599 1 6.19995 1.85483 6.19995 2.909L6.19995 3.22727L7.39983 3.22727L7.39983 2.909C7.39983 2.55753 7.66875 2.27266 7.99995 2.27266C8.33115 2.27266 8.60007 2.55753 8.60007 2.909L8.60007 3.22727L9.79995 3.22727Z"   fill="#999999" >
</path>
<path d="M2 5.77273L14 5.77273L14 4.5L2 4.5L2 5.77273Z"   fill="#999999" >
</path>
</svg>
