<svg xmlns="http://www.w3.org/2000/svg" xmlns:xlink="http://www.w3.org/1999/xlink" width="24" height="24" viewBox="0 0 24 24" fill="none">
<path d="M1 9C1 4.5824 4.5824 1 9 1C13.4176 1 17 4.5824 17 9C17 13.4176 13.4176 17 9 17C4.5824 17 1 13.4176 1 9ZM9 3C12.3136 3 15 5.6864 15 9C15 12.3136 12.3136 15 9 15C5.6864 15 3 12.3136 3 9C3 5.6864 5.6864 3 9 3Z" fill-rule="evenodd"  fill="#333333" >
</path>
<path d="M22.2071 20.7934L14.7066 13.293L13.2928 14.7068L20.7933 22.2072L22.2071 20.7934Z"   fill="#333333" >
</path>
</svg>
